<?xml version="1.0" encoding="UTF-8" standalone="no"?>
<svg xmlns:dc="http://purl.org/dc/elements/1.1/" xmlns:cc="http://creativecommons.org/ns#" xmlns:rdf="http://www.w3.org/1999/02/22-rdf-syntax-ns#" xmlns:svg="http://www.w3.org/2000/svg" xmlns="http://www.w3.org/2000/svg" xmlns:sodipodi="http://sodipodi.sourceforge.net/DTD/sodipodi-0.dtd" xmlns:inkscape="http://www.inkscape.org/namespaces/inkscape" version="1.1" id="svg2" xml:space="preserve" width="816" height="1056" viewBox="0 0 816 1056" sodipodi:docname="ctto-sign.ai">
  <metadata id="metadata8">
    <rdf:RDF>
      <cc:Work rdf:about="">
        <dc:format>
          image/svg+xml
        </dc:format>
        <dc:type rdf:resource="http://purl.org/dc/dcmitype/StillImage" />
      </cc:Work>
    </rdf:RDF>
  </metadata>
  <defs id="defs6">
    <clipPath clipPathUnits="userSpaceOnUse" id="clipPath22">
      <path d="M 0,792 H 612 V 0 H 0 Z" id="path20" />
    </clipPath>
  </defs>
  <sodipodi:namedview pagecolor="#ffffff" bordercolor="#666666" borderopacity="1" objecttolerance="10" gridtolerance="10" guidetolerance="10" inkscape:pageopacity="0" inkscape:pageshadow="2" inkscape:window-width="640" inkscape:window-height="480" id="namedview4" />
  <g id="g10" inkscape:groupmode="layer" inkscape:label="ctto-sign" transform="matrix(1.3333333,0,0,-1.3333333,0,1056)">
    <g id="g16">
      <g id="g18" clip-path="url(#clipPath22)">
        <g id="toronto">
          <g id="g12" transform="translate(210.0059,319.0491)">
            <path d="m 0,0 v -7.281 h -7.901 v -33.746 h -7.31 v 33.746 h -7.907 V 0 Z" style="fill:#000000;fill-opacity:1;fill-rule:nonzero;stroke:none" id="t-oronto" />
          </g>
          <g id="g24" transform="translate(228.4933,311.4567)">
            <path d="m 0,0 c -0.486,-0.414 -0.844,-1.202 -1.067,-2.364 -0.207,-1.123 -0.319,-4.649 -0.341,-10.572 0,-6.058 0.134,-9.578 0.396,-10.573 0.297,-1.067 0.71,-1.799 1.235,-2.196 0.844,-0.654 2.336,-0.983 4.471,-0.983 2.123,0 3.582,0.301 4.387,0.899 0.508,0.38 0.922,1.135 1.24,2.28 0.263,1.012 0.391,4.538 0.391,10.573 -0.017,5.923 -0.128,9.449 -0.335,10.572 -0.224,1.162 -0.648,1.973 -1.269,2.42 C 8.248,0.693 6.711,1.011 4.498,1.011 2.285,1.011 0.788,0.676 0,0 m -8.041,-25.532 c -0.492,1.665 -0.704,6.007 -0.648,13.02 0.055,6.427 0.206,10.271 0.452,11.528 1.163,6.186 5.409,9.282 12.735,9.282 7.522,0 11.869,-3.096 13.048,-9.282 0.246,-1.257 0.397,-5.101 0.453,-11.528 0.056,-7.013 -0.162,-11.355 -0.648,-13.02 -0.973,-3.375 -2.811,-5.739 -5.51,-7.085 -1.861,-0.922 -4.236,-1.381 -7.147,-1.381 -6.857,0 -11.103,2.822 -12.735,8.466" style="fill:#000000;fill-opacity:1;fill-rule:nonzero;stroke:none" id="t-o-ronto" />
          </g>
          <g id="g28" transform="translate(264.6689,301.2771)">
            <path d="m 0,0 c 2.515,0.732 4.582,1.397 6.214,1.995 1.106,0.397 1.76,0.844 1.967,1.352 0.19,0.43 0.246,1.492 0.173,3.174 -0.022,0.754 -0.028,1.341 -0.028,1.777 0,0.671 -0.547,1.224 -1.632,1.654 -0.899,0.38 -1.838,0.565 -2.816,0.565 H 0 Z m 9.589,-23.257 -0.196,2.475 c -0.245,3.129 -2.24,7.857 -5.99,14.171 C 2.336,-6.929 1.201,-7.253 0,-7.594 V -23.257 H -7.309 V 17.826 H 3.878 c 3.096,0 5.767,-0.811 8.019,-2.442 2.475,-1.8 3.71,-4.163 3.71,-7.086 0,-0.324 0.017,-0.816 0.056,-1.492 0.073,-2.38 -0.095,-4.236 -0.508,-5.571 -0.749,-2.342 -2.331,-4.13 -4.75,-5.37 3.917,-6.806 6.018,-12.221 6.298,-16.25 l 0.167,-2.872 z" style="fill:#000000;fill-opacity:1;fill-rule:nonzero;stroke:none" id="to-r-onto" />
          </g>
          <g id="g32" transform="translate(300.2813,311.4567)">
            <path d="m 0,0 c -0.486,-0.414 -0.844,-1.202 -1.067,-2.364 -0.207,-1.123 -0.319,-4.649 -0.341,-10.572 0,-6.058 0.134,-9.578 0.396,-10.573 0.297,-1.067 0.71,-1.799 1.235,-2.196 0.844,-0.654 2.336,-0.983 4.471,-0.983 2.123,0 3.582,0.301 4.387,0.899 0.508,0.38 0.922,1.135 1.24,2.28 0.263,1.012 0.391,4.538 0.391,10.573 -0.017,5.923 -0.128,9.449 -0.335,10.572 -0.224,1.162 -0.648,1.973 -1.269,2.42 C 8.248,0.693 6.711,1.011 4.498,1.011 2.285,1.011 0.788,0.676 0,0 m -8.041,-25.532 c -0.492,1.665 -0.704,6.007 -0.648,13.02 0.055,6.427 0.206,10.271 0.452,11.528 1.163,6.186 5.409,9.282 12.735,9.282 7.522,0 11.869,-3.096 13.048,-9.282 0.246,-1.257 0.397,-5.101 0.453,-11.528 0.056,-7.013 -0.162,-11.355 -0.648,-13.02 -0.973,-3.375 -2.811,-5.739 -5.51,-7.085 -1.861,-0.922 -4.236,-1.381 -7.147,-1.381 -6.857,0 -11.103,2.822 -12.735,8.466" style="fill:#000000;fill-opacity:1;fill-rule:nonzero;stroke:none" id="tor-o-nto" />
          </g>
          <g id="g38" transform="translate(348.3517,278.0209)">
            <path d="m 0,0 -0.196,2.475 c -0.245,3.526 -3.459,9.992 -9.644,19.402 -0.263,0.413 -0.593,0.916 -0.984,1.52 V 0 h -7.315 v 41.055 h 7.002 l 0.341,-2.274 c 0.263,-1.839 2.615,-6.13 7.058,-12.881 1.592,-2.436 2.782,-4.286 3.57,-5.543 V 41.055 H 7.141 L 7.141,0 Z" style="fill:#000000;fill-opacity:1;fill-rule:nonzero;stroke:none" id="toro-n-to" />
          </g>
          <g id="g42" transform="translate(389.2794,319.0491)">
            <path d="m 0,0 v -7.281 h -7.901 v -33.746 h -7.31 v 33.746 h -7.907 V 0 Z" style="fill:#000000;fill-opacity:1;fill-rule:nonzero;stroke:none" id="toron-t-o" />
          </g>
          <g id="g46" transform="translate(407.7667,311.4567)">
            <path d="m 0,0 c -0.486,-0.414 -0.844,-1.202 -1.067,-2.364 -0.207,-1.123 -0.319,-4.649 -0.341,-10.572 0,-6.058 0.134,-9.578 0.396,-10.573 0.297,-1.067 0.71,-1.799 1.235,-2.196 0.844,-0.654 2.336,-0.983 4.471,-0.983 2.123,0 3.582,0.301 4.387,0.899 0.508,0.38 0.922,1.135 1.24,2.28 0.263,1.012 0.391,4.538 0.391,10.573 -0.017,5.923 -0.128,9.449 -0.335,10.572 -0.224,1.162 -0.648,1.973 -1.269,2.42 C 8.248,0.693 6.711,1.011 4.498,1.011 2.285,1.011 0.788,0.676 0,0 m -8.041,-25.532 c -0.492,1.665 -0.704,6.007 -0.648,13.02 0.055,6.427 0.206,10.271 0.452,11.528 1.163,6.186 5.409,9.282 12.735,9.282 7.522,0 11.869,-3.096 13.048,-9.282 0.246,-1.257 0.397,-5.101 0.453,-11.528 0.056,-7.013 -0.162,-11.355 -0.648,-13.02 -0.973,-3.375 -2.811,-5.739 -5.51,-7.085 -1.861,-0.922 -4.236,-1.381 -7.147,-1.381 -6.857,0 -11.103,2.822 -12.735,8.466" style="fill:#000000;fill-opacity:1;fill-rule:nonzero;stroke:none" id="toront-o" />
          </g>
        </g>
        <g id="civic">
          <g id="g50" transform="translate(118.1299,352.6755)">
            <path d="m 0,0 c -3.342,2.151 -5.728,5.649 -7.147,10.494 -0.81,2.844 -1.179,11.187 -1.101,25.023 0.078,12.992 0.347,20.665 0.81,23.006 0.961,5.191 3.152,8.997 6.572,11.416 3.425,2.42 8.304,3.632 14.646,3.632 12.305,0 19.547,-4.671 21.737,-14.008 L 30.499,58.64 c -0.843,3.459 -2.57,5.974 -5.185,7.55 -2.655,1.537 -6.499,2.308 -11.534,2.308 -5.532,0 -9.55,-0.978 -12.048,-2.939 -2.118,-1.615 -3.52,-4.287 -4.213,-8.014 C -2.978,55.008 -3.23,47.476 -3.23,34.942 -3.263,21.95 -2.939,14.277 -2.246,11.936 -1.291,8.555 0.268,6.091 2.42,4.554 5.035,2.71 8.958,1.788 14.182,1.788 c 5.074,0 8.846,0.771 11.305,2.308 2.112,1.347 3.688,3.61 4.727,6.8 L 35.115,9.455 C 33.617,4.956 31.231,1.71 27.962,-0.291 24.699,-2.286 20.1,-3.286 14.182,-3.286 8.108,-3.286 3.381,-2.191 0,0" style="fill:#000000;fill-opacity:1;fill-rule:nonzero;stroke:none" id="c-ivic" />
          </g>
          <path d="m 169.106,350.543 h 5.018 v 48.951 h -5.018 z m -0.458,60.484 c -0.771,0.771 -1.151,1.693 -1.151,2.766 0,1.04 0.38,1.939 1.151,2.71 0.726,0.727 1.637,1.096 2.71,1.096 1.039,0 1.939,-0.369 2.71,-1.096 0.771,-0.771 1.151,-1.67 1.151,-2.71 0,-1.073 -0.38,-1.995 -1.151,-2.766 -0.771,-0.732 -1.671,-1.095 -2.71,-1.095 -1.073,0 -1.984,0.363 -2.71,1.095" style="fill:#000000;fill-opacity:1;fill-rule:nonzero;stroke:none" id="c-i-vic" />
          <g id="ci-v-ic" transform="translate(205.038,350.5422)">
            <path d="m 0,0 c -10.953,23.375 -16.686,39.647 -17.183,48.839 h 5.074 C -11.645,41.418 -7.091,27.694 1.559,7.666 L 2.593,5.303 3.576,7.666 c 8.494,20.028 12.97,33.752 13.434,41.173 h 5.074 C 21.586,39.691 15.948,23.408 5.191,0 Z" style="fill:#000000;fill-opacity:1;fill-rule:nonzero;stroke:none" id="path56" />
          </g>
          <path d="m 239.409,350.543 h 5.018 v 48.951 h -5.018 z m -0.458,60.484 c -0.772,0.771 -1.152,1.693 -1.152,2.766 0,1.04 0.38,1.939 1.152,2.71 0.726,0.727 1.631,1.096 2.71,1.096 1.039,0 1.939,-0.369 2.71,-1.096 0.771,-0.771 1.151,-1.67 1.151,-2.71 0,-1.073 -0.38,-1.995 -1.151,-2.766 -0.771,-0.732 -1.671,-1.095 -2.71,-1.095 -1.079,0 -1.984,0.363 -2.71,1.095" style="fill:#000000;fill-opacity:1;fill-rule:nonzero;stroke:none" id="civ-i-c" />
          <g id="g60" transform="translate(268.0758,353.1367)">
            <path d="m 0,0 c -3.263,2.498 -5.515,5.845 -6.745,10.03 -1.81,6.382 -1.905,13.859 -0.29,22.431 0.922,4.844 2.922,8.572 5.996,11.187 3.079,2.576 7.057,3.861 11.936,3.861 6.571,0 11.667,-2.442 15.283,-7.32 l -4.269,-2.766 c -2.616,3.341 -6.287,5.012 -11.014,5.012 -7.265,0 -11.59,-3.632 -12.97,-10.896 -1.464,-7.807 -1.386,-14.49 0.229,-20.067 0.883,-3.146 2.498,-5.627 4.845,-7.438 2.38,-1.804 5.152,-2.71 8.298,-2.71 4.465,0 7.924,1.615 10.382,4.845 L 25.945,3.403 C 22.453,-1.364 17.563,-3.75 11.299,-3.75 7.035,-3.75 3.263,-2.498 0,0" style="fill:#000000;fill-opacity:1;fill-rule:nonzero;stroke:none" id="civi-c" />
          </g>
        </g>
        <g id="tech">
          <g id="g64" transform="translate(357.0766,424.8067)">
            <path d="m 0,0 v -5.074 h -16.2 v -69.191 h -5.074 V -5.074 H -37.479 V 0 Z" style="fill:#000000;fill-opacity:1;fill-rule:nonzero;stroke:none" id="t-ech" />
          </g>
          <g id="g68" transform="translate(373.2869,383.6957)">
            <path d="m 0,0 c -0.425,-1.537 -0.715,-3.264 -0.866,-5.191 l -0.112,-1.442 26.694,4.962 -0.056,0.978 C 25.582,0.117 25.487,0.944 25.37,1.788 24.218,8.706 20.525,12.165 14.3,12.165 7.069,12.165 2.308,8.108 0,0 m 1.788,-30.499 c -3.23,2.497 -5.364,5.856 -6.398,10.086 -2.001,8.075 -2.079,15.339 -0.235,21.799 1.425,5.035 3.806,8.912 7.153,11.645 3.341,2.766 7.342,4.152 11.992,4.152 4.263,0 7.823,-1.291 10.667,-3.861 2.844,-2.576 4.633,-6.153 5.359,-10.729 0.464,-2.727 0.559,-4.979 0.291,-6.745 l -0.229,-1.788 -31.31,-5.823 0.117,-0.978 c 0.19,-2.19 0.553,-4.347 1.095,-6.46 0.766,-3.112 2.303,-5.554 4.611,-7.32 2.307,-1.81 5.074,-2.71 8.303,-2.71 4.611,0 8.382,1.442 11.299,4.32 l 3.867,-3.286 c -3.922,-4.074 -8.974,-6.108 -15.166,-6.108 -4.381,0 -8.186,1.268 -11.416,3.806" style="fill:#000000;fill-opacity:1;fill-rule:nonzero;stroke:none" id="t-e-ch" />
          </g>
          <g id="g72" transform="translate(425.2459,353.1367)">
            <path d="m 0,0 c -3.263,2.498 -5.515,5.845 -6.745,10.03 -1.81,6.382 -1.905,13.859 -0.29,22.431 0.922,4.844 2.922,8.572 5.996,11.187 3.079,2.576 7.057,3.861 11.936,3.861 6.571,0 11.667,-2.442 15.283,-7.32 l -4.269,-2.766 c -2.616,3.341 -6.287,5.012 -11.014,5.012 -7.265,0 -11.59,-3.632 -12.97,-10.896 -1.464,-7.807 -1.386,-14.49 0.229,-20.067 0.883,-3.146 2.498,-5.627 4.845,-7.438 2.38,-1.804 5.152,-2.71 8.298,-2.71 4.465,0 7.924,1.615 10.382,4.845 L 25.945,3.403 C 22.453,-1.364 17.563,-3.75 11.299,-3.75 7.035,-3.75 3.263,-2.498 0,0" style="fill:#000000;fill-opacity:1;fill-rule:nonzero;stroke:none" id="te-c-h" />
          </g>
          <g id="g76" transform="translate(494.8479,350.5422)">
            <path d="m 0,0 v 33.444 c 0,7.644 -3.342,11.472 -10.031,11.472 -4.727,0 -9.477,-1.229 -14.243,-3.688 L -24.85,40.882 V 0 h -5.074 v 77.779 h 5.074 V 46.587 l 1.498,0.637 c 4.537,1.844 8.974,2.766 13.321,2.766 4.571,0 8.22,-1.497 10.953,-4.498 2.733,-2.995 4.096,-7.013 4.096,-12.048 L 5.018,0 Z" style="fill:#000000;fill-opacity:1;fill-rule:nonzero;stroke:none" id="tec-h" />
          </g>
        </g>
        <g id="bracket-open">
          <g id="g80" transform="translate(269.5937,534.2966)">
            <path d="m 0,0 -14.97,7.616 c -0.755,0.381 -1.097,0.907 -1.097,1.629 v 0.151 c 0,0.722 0.342,1.253 1.097,1.629 L 0,18.641 0.795,18.832 c 0.682,0.039 1.214,-0.566 1.214,-1.288 0,-0.604 -0.341,-1.024 -0.868,-1.287 L -12.771,9.362 1.141,2.389 C 1.668,2.121 2.009,1.707 2.009,1.097 2.009,0.375 1.477,-0.19 0.722,-0.19 Z" style="fill:#000000;fill-opacity:1;fill-rule:nonzero;stroke:none" id="path82" />
          </g>
          <g id="g84" transform="translate(269.5937,534.2966)">
            <path d="m 0,0 0.21,0.409 -14.97,7.617 c -0.653,0.351 -0.829,0.654 -0.848,1.219 v 0.151 c 0.019,0.566 0.195,0.873 0.843,1.219 l 14.926,7.597 0.741,0.176 -0.107,0.444 0.029,-0.459 0.034,0.005 C 1.209,18.373 1.546,18.037 1.551,17.544 1.541,17.125 1.365,16.9 0.931,16.667 L -13.795,9.362 0.931,1.975 C 1.365,1.745 1.541,1.516 1.551,1.097 1.536,0.609 1.234,0.283 0.722,0.268 V -0.19 L 0.839,0.253 0.117,0.444 0,0 0.21,0.409 0,0 -0.117,-0.444 0.605,-0.634 0.663,-0.649 h 0.059 c 0.492,0 0.941,0.191 1.253,0.512 0.317,0.322 0.492,0.761 0.492,1.234 0.01,0.795 -0.492,1.4 -1.121,1.702 l -13.088,6.558 13.083,6.49 c 0.634,0.298 1.136,0.907 1.126,1.697 0,0.907 -0.658,1.741 -1.609,1.751 L 0.77,19.29 H 0.727 l -0.834,-0.2 -0.054,-0.015 -15.013,-7.641 c -0.864,-0.404 -1.371,-1.16 -1.351,-2.038 V 9.245 c -0.02,-0.873 0.487,-1.629 1.351,-2.038 l 15.008,-7.636 0.049,-0.015 z" style="fill:#000000;fill-opacity:1;fill-rule:nonzero;stroke:none" id="path86" />
          </g>
          <g id="g88" transform="translate(269.5937,534.2966)">
            <path d="m 0,0 0.2,0.395 -14.97,7.616 -0.663,0.537 -0.19,0.697 v 0.151 l 0.19,0.697 0.663,0.537 v 0.005 L 0.2,18.251 v -0.005 l 0.595,0.147 h 0.024 0.005 0.034 l 0.488,-0.23 0.219,-0.619 C 1.555,17.12 1.375,16.886 0.941,16.652 L -13.76,9.362 0.941,1.994 C 1.375,1.76 1.555,1.526 1.565,1.097 1.555,0.6 1.243,0.263 0.722,0.253 L 0.166,0.409 0,0 0.2,0.395 0,0 -0.166,-0.41 c 0.21,-0.078 0.527,-0.214 0.888,-0.224 0.487,0 0.936,0.19 1.243,0.507 0.312,0.317 0.488,0.756 0.488,1.224 0.009,0.79 -0.488,1.39 -1.117,1.687 l -13.112,6.573 13.112,6.505 c 0.629,0.297 1.126,0.897 1.117,1.682 0,0.459 -0.161,0.883 -0.444,1.2 C 1.731,19.065 1.321,19.28 0.858,19.28 L 0.77,19.275 0.795,18.832 v 0.443 c -0.376,0 -0.712,-0.097 -0.99,-0.234 L -15.17,11.42 h 0.005 c -0.429,-0.21 -0.77,-0.483 -1.004,-0.834 -0.234,-0.346 -0.342,-0.761 -0.342,-1.19 V 9.245 c 0,-0.429 0.108,-0.839 0.342,-1.185 0.234,-0.351 0.575,-0.624 1.004,-0.839 l 14.98,-7.621 0.019,-0.01 z" style="fill:#000000;fill-opacity:1;fill-rule:nonzero;stroke:none" id="path90" />
          </g>
          <g id="g92" transform="translate(269.5937,534.2966)">
            <path d="m 0,0 0.41,-0.21 0.2,0.395 0.209,0.41 -15.379,7.826 h -0.005 l -0.205,-0.41 0.288,0.356 -0.551,0.444 -0.137,0.497 v 0.025 l 0.142,0.497 0.546,0.444 -0.288,0.356 0.22,-0.4 h 0.005 l -0.225,0.405 0.21,-0.41 14.97,7.617 -0.21,0.409 -0.22,0.4 h -0.004 l -2.946,-1.633 3.872,0.926 -0.107,0.449 v -0.459 h 0.024 0.015 0.024 0.029 l -0.029,0.459 -0.2,-0.415 0.322,-0.151 0.156,-0.439 0.429,0.156 -0.458,0.015 C 1.073,17.271 1.097,17.291 0.722,17.057 L 0.941,16.652 1.195,16.271 0.736,17.066 -14.789,9.367 0.736,1.58 0.941,1.994 0.722,1.59 C 1.097,1.351 1.073,1.37 1.107,1.087 L 1.565,1.097 1.107,1.112 0.712,0.712 0.722,0.253 0.848,0.692 0.293,0.853 -0.107,0.965 -0.424,0.171 0.41,-0.21 0.61,0.185 -0.21,0.605 -0.41,0.21 -0.419,0.185 -0.59,-0.239 -0.766,-0.673 -0.327,-0.839 c 0.195,-0.073 0.571,-0.239 1.039,-0.253 0.619,0 1.185,0.239 1.58,0.648 0.4,0.405 0.619,0.956 0.619,1.541 V 1.121 C 2.906,2.106 2.277,2.848 1.531,3.199 l -0.195,-0.415 0.205,0.41 -12.293,6.163 12.307,6.1 0.025,0.015 -0.244,0.39 0.195,-0.414 c 0.746,0.346 1.38,1.092 1.38,2.072 v 0.014 H 2.565 l 0.341,-0.039 0.005,0.039 H 2.565 l 0.341,-0.039 0.005,0.025 v 0.024 c 0,0.566 -0.2,1.097 -0.556,1.502 -0.356,0.41 -0.887,0.692 -1.497,0.692 H 0.844 l -0.093,-0.004 -0.473,-0.015 0.058,-0.917 0.917,0.03 v 0.443 0.459 H 0.795 c -0.454,0 -0.863,-0.117 -1.2,-0.283 l -14.974,-7.622 0.209,-0.409 0.249,-0.386 0.005,0.005 -0.454,0.795 c -0.482,-0.239 -0.892,-0.561 -1.18,-0.994 -0.287,-0.43 -0.419,-0.932 -0.419,-1.434 l 0.024,-0.151 0.434,0.141 h -0.458 V 9.245 h 0.458 l -0.448,0.078 -0.01,-0.083 c 0,-0.502 0.127,-1.004 0.419,-1.438 0.288,-0.429 0.698,-0.751 1.18,-0.99 L -0.39,-0.814 -0.356,-0.829 0.083,-1.024 0.424,-0.171 0,0 0.41,-0.21 0,0 -0.424,0.171 -0.59,-0.239 -0.166,-0.41 0.024,0.01 0.01,0.015 -14.96,7.631 c -0.375,0.19 -0.648,0.415 -0.829,0.683 -0.175,0.263 -0.263,0.575 -0.263,0.926 h -0.41 l 0.405,-0.073 0.005,0.073 h -0.41 l 0.405,-0.073 0.005,0.039 v 0.19 0.073 l -0.02,0.069 -0.414,-0.132 h 0.434 l -0.02,0.132 -0.414,-0.132 h 0.434 c 0,0.346 0.088,0.663 0.263,0.922 0.181,0.273 0.454,0.497 0.829,0.682 l -0.205,0.41 -0.248,0.39 -0.005,-0.005 0.458,-0.795 14.97,7.622 0.785,0.185 v 0.458 H 0.336 V 18.832 H 0.795 L 1.253,18.861 1.224,19.304 0.77,19.275 0.785,18.817 0.873,18.822 0.858,19.28 V 18.817 L 1.663,18.441 C 1.868,18.207 1.994,17.89 1.994,17.544 H 2.453 L 1.994,17.593 V 17.52 c 0,-0.566 -0.356,-1.005 -0.853,-1.244 L 1.117,16.267 1.107,16.262 -12.805,9.362 1.136,2.37 H 1.141 C 1.634,2.126 1.994,1.687 1.994,1.121 V 1.097 C 1.994,0.741 1.858,0.424 1.638,0.195 1.414,-0.029 1.097,-0.171 0.722,-0.171 L -0.005,0.019 -0.166,-0.41 0.258,-0.58 0.419,-0.19 0.61,0.185 -0.21,0.605 -0.41,0.21 0,0 l 0.424,-0.171 0.01,0.029 0.161,-0.048 0.068,-0.02 0.068,0.005 c 0.732,-0.019 1.307,0.6 1.293,1.292 v 0.005 0.02 C 2.038,1.677 1.653,2.165 1.156,2.394 l -0.015,0.01 -13.873,6.958 13.878,6.88 -0.205,0.41 -0.253,0.385 v -0.005 l 0.473,-0.785 c 0.492,0.234 0.877,0.717 0.863,1.287 l 0.004,0.088 -0.253,0.693 -0.063,0.18 -0.659,0.312 -0.107,0.054 -0.151,-0.01 H 0.78 l 0.039,-0.458 v 0.458 H 0.795 0.741 L 0.093,18.695 0.2,18.246 l 0.219,-0.4 h 0.005 l -0.434,0.815 -14.974,-7.622 -0.01,-0.005 -0.034,-0.019 -0.693,-0.566 -0.117,-0.092 -0.229,-0.839 -0.014,-0.058 V 9.245 9.182 l 0.204,-0.756 0.039,-0.142 0.781,-0.629 0.039,-0.029 0.043,-0.024 L -0.01,-0.015 0.2,0.395 -0.21,0.605 -0.41,0.21 -0.419,0.185 -0.424,0.171 Z" style="fill:#000000;fill-opacity:1;fill-rule:nonzero;stroke:none" id="path94" />
          </g>
        </g>
        <g id="bracket-close">
          <g id="g96" transform="translate(320.6886,530.9618)">
            <path d="M 0,0 V 0 C -0.531,0.258 -0.756,0.907 -0.493,1.438 L 15.55,34.289 c 0.263,0.531 0.907,0.756 1.438,0.497 0.532,-0.258 0.756,-0.907 0.498,-1.438 L 1.438,0.492 C 1.18,-0.039 0.531,-0.258 0,0" style="fill:#000000;fill-opacity:1;fill-rule:nonzero;stroke:none" id="path98" />
          </g>
          <g id="g100" transform="translate(320.6886,530.9618)">
            <path d="m 0,0 0.2,0.414 -0.346,0.556 0.063,0.264 0.029,0.058 16.018,32.797 0.556,0.346 0.268,-0.063 0.347,-0.556 L 17.071,33.548 1.024,0.697 0.468,0.351 0.205,0.41 0,0 -0.205,-0.41 0.468,-0.566 c 0.566,0 1.112,0.312 1.38,0.859 l 16.047,32.855 0.156,0.668 c 0,0.565 -0.317,1.116 -0.858,1.38 l -0.673,0.156 c -0.565,0 -1.111,-0.317 -1.38,-0.858 L -0.907,1.638 V 1.643 L -1.063,0.97 c 0,-0.57 0.317,-1.116 0.863,-1.385 z" style="fill:#000000;fill-opacity:1;fill-rule:nonzero;stroke:none" id="path102" />
          </g>
          <g id="g104" transform="translate(345.5153,552.9399)">
            <path d="m 0,0 14.931,-7.617 c 0.755,-0.38 1.136,-0.911 1.136,-1.628 v -0.151 c 0,-0.722 -0.381,-1.254 -1.136,-1.629 L 0,-18.642 l -0.795,-0.19 c -0.682,-0.039 -1.253,0.566 -1.253,1.288 0,0.604 0.38,1.024 0.873,1.287 l 13.907,6.895 -13.907,6.973 c -0.493,0.268 -0.873,0.682 -0.873,1.292 0,0.717 0.571,1.287 1.287,1.287 z" style="fill:#000000;fill-opacity:1;fill-rule:nonzero;stroke:none" id="path106" />
          </g>
          <g id="g108" transform="translate(345.5153,552.9399)">
            <path d="m 0,0 -0.21,-0.41 14.931,-7.616 c 0.663,-0.351 0.873,-0.678 0.887,-1.219 v -0.151 c -0.014,-0.546 -0.224,-0.868 -0.882,-1.219 l -14.887,-7.597 -0.741,-0.176 0.107,-0.444 -0.024,0.454 h -0.039 c -0.366,0 -0.732,0.366 -0.732,0.834 0.005,0.395 0.22,0.653 0.629,0.882 l -0.214,0.405 0.205,-0.41 14.73,7.305 -14.73,7.387 -0.205,-0.414 0.214,0.404 c -0.409,0.234 -0.624,0.493 -0.629,0.888 0.005,0.468 0.361,0.824 0.829,0.829 V 0.19 L -0.873,-0.254 -0.112,-0.444 0,0 -0.21,-0.41 0,0 0.112,0.444 -0.649,0.634 -0.702,0.648 h -0.059 c -0.965,0 -1.745,-0.775 -1.745,-1.745 -0.005,-0.819 0.536,-1.395 1.111,-1.692 l 0.01,-0.005 13.088,-6.563 -13.098,-6.495 c -0.575,-0.298 -1.116,-0.873 -1.111,-1.692 0,-0.932 0.702,-1.741 1.648,-1.751 l 0.088,0.005 h 0.039 l 0.838,0.2 0.054,0.015 14.974,7.64 c 0.854,0.405 1.405,1.141 1.39,2.039 v 0.151 c 0.015,0.897 -0.536,1.633 -1.394,2.038 L 0.161,0.434 0.112,0.444 Z" style="fill:#000000;fill-opacity:1;fill-rule:nonzero;stroke:none" id="path110" />
          </g>
          <g id="g112" transform="translate(345.5153,552.9399)">
            <path d="m 0,0 -0.2,-0.395 14.926,-7.616 h 0.005 c 0.663,-0.352 0.877,-0.683 0.892,-1.234 v -0.151 c -0.015,-0.551 -0.229,-0.883 -0.892,-1.234 L -0.2,-18.251 0,-18.642 l -0.176,0.405 -0.619,-0.156 h -0.019 -0.044 l -0.517,0.239 -0.234,0.61 c 0.005,0.399 0.229,0.663 0.643,0.897 l -0.209,0.39 0.195,-0.395 14.701,7.29 -14.696,7.372 -0.2,-0.399 0.209,0.39 c -0.414,0.234 -0.638,0.497 -0.643,0.902 0.005,0.478 0.37,0.839 0.848,0.843 L -0.141,-0.419 0,0 -0.2,-0.395 0,0 0.141,0.419 c -0.204,0.064 -0.512,0.21 -0.902,0.215 -0.955,-0.005 -1.726,-0.771 -1.731,-1.731 -0.005,-0.815 0.532,-1.38 1.107,-1.678 l 0.029,-0.014 13.098,-6.568 -13.112,-6.505 -0.015,-0.005 c -0.575,-0.297 -1.112,-0.868 -1.107,-1.677 0.005,-0.922 0.702,-1.722 1.634,-1.731 h 0.083 l -0.02,0.443 v -0.443 c 0.351,0 0.673,0.097 0.971,0.224 l 0.024,0.015 14.931,7.616 h -0.005 c 0.853,0.405 1.399,1.131 1.384,2.024 v 0.151 c 0.015,0.887 -0.531,1.619 -1.384,2.023 L 0.171,0.41 0.141,0.419 Z" style="fill:#000000;fill-opacity:1;fill-rule:nonzero;stroke:none" id="path114" />
          </g>
          <g id="g116" transform="translate(345.5153,552.9399)">
            <path d="m 0,0 -0.41,0.21 -0.2,-0.395 -0.209,-0.41 15.35,-7.831 0.024,-0.01 0.176,0.425 -0.215,-0.405 c 0.6,-0.356 0.605,-0.425 0.649,-0.844 l 0.458,0.015 h -0.458 v -0.151 h 0.458 l -0.458,0.009 c -0.044,-0.419 -0.049,-0.482 -0.649,-0.838 l -15.335,-7.827 0.409,-0.799 0.829,0.39 -0.175,0.405 -0.151,0.356 -1,-0.244 0.112,-0.449 v 0.459 h -0.019 v -0.917 0.458 l -0.015,0.459 h -0.044 l 0.015,-0.459 0.195,0.415 -0.351,0.161 -0.166,0.438 -0.429,-0.165 0.458,-0.005 c 0.02,0.209 0.054,0.283 0.41,0.502 l 0.39,0.224 -0.419,0.785 -0.815,-0.424 0.195,-0.395 0.205,-0.409 15.94,7.904 -15.935,7.987 -0.405,-0.805 0.815,-0.424 0.209,0.39 0.21,0.395 -0.39,0.22 c -0.356,0.224 -0.39,0.297 -0.41,0.507 l -0.458,-0.005 0.458,-0.005 0.395,0.39 -0.005,0.458 -0.117,-0.443 0.62,-0.166 0.414,-0.112 0.278,0.829 -0.844,0.356 -0.2,-0.395 0.82,-0.415 0.2,0.39 0.014,0.034 0.151,0.449 0.152,0.444 -0.449,0.141 C 0.122,0.902 -0.258,1.082 -0.756,1.092 -1.97,1.087 -2.95,0.117 -2.95,-1.097 h 0.458 l -0.453,0.073 -0.005,-0.083 c 0,-1.029 0.683,-1.736 1.355,-2.077 l 0.025,-0.01 0.005,-0.005 12.278,-6.158 -12.298,-6.095 -0.014,-0.01 c -0.668,-0.342 -1.351,-1.049 -1.351,-2.077 h 0.39 l -0.39,0.014 v -0.014 h 0.39 l -0.39,0.014 0.049,-0.224 0.409,0.205 H -2.95 c 0,-1.146 0.878,-2.175 2.087,-2.19 h 0.015 0.078 l 0.473,0.005 -0.039,0.912 -0.917,-0.015 v -0.443 -0.459 h 0.458 c 0.434,0 0.819,0.122 1.151,0.264 l 0.024,0.009 0.015,0.005 14.94,7.626 -0.404,0.82 h -0.005 l 0.395,-0.824 c 0.965,0.443 1.648,1.326 1.648,2.399 l -0.005,0.005 0.005,0.009 v 0.176 0.034 c 0,1.078 -0.688,1.955 -1.648,2.404 l -0.195,-0.415 0.209,0.41 L 0.346,0.834 0.283,0.853 -0.151,1 -0.434,0.146 0,0 -0.41,0.21 0,0 0.434,-0.146 0.575,0.273 0.141,0.419 -0.005,-0.015 0.029,-0.024 0.171,0.41 -0.034,0 l 14.955,-7.631 0.01,-0.005 c 0.721,-0.351 1.116,-0.902 1.121,-1.575 v -0.034 -0.151 h 0.458 l -0.458,0.034 v -0.073 c -0.005,-0.673 -0.4,-1.224 -1.121,-1.575 l 0.395,-0.824 h 0.004 l -0.199,0.414 -0.21,0.41 L 0,-18.627 h -0.005 l -0.79,-0.19 v -0.458 h 0.459 v 0.443 h -0.459 l -0.458,-0.019 0.019,-0.444 0.459,0.02 -0.01,0.458 h -0.078 l 0.005,-0.458 0.005,0.458 c -0.659,0 -1.175,0.58 -1.18,1.273 v 0.107 l -0.044,0.093 -0.405,-0.195 0.449,0.014 -0.044,0.181 -0.405,-0.195 0.449,0.014 -0.429,-0.014 0.429,-0.015 v 0.029 l -0.429,-0.014 0.429,-0.015 v 0.015 c -0.005,0.585 0.385,1.014 0.858,1.262 l 0.019,0.01 -0.214,0.405 0.2,-0.41 13.941,6.91 -13.922,6.982 -0.205,-0.409 0.21,0.405 -0.024,0.014 c -0.478,0.254 -0.868,0.678 -0.863,1.263 h -0.41 l 0.405,-0.068 0.005,0.068 h -0.41 l 0.405,-0.068 0.005,0.034 v 0.044 c 0.005,0.707 0.565,1.268 1.272,1.268 L 0.005,-0.02 0.141,0.419 -0.293,0.566 -0.424,0.18 -0.61,-0.185 0.21,-0.6 0.41,-0.21 0,0 -0.434,0.146 -0.439,0.136 -0.639,0.19 -0.702,0.205 H -0.761 C -1.477,0.21 -2.068,-0.376 -2.068,-1.097 v -0.005 c -0.004,-0.595 0.405,-1.048 0.878,-1.297 l 0.224,0.4 -0.404,0.219 -0.21,-0.39 0.405,-0.219 0.409,-0.205 0.2,0.395 -0.409,0.209 -0.21,-0.409 13.882,-6.958 -13.882,-6.885 0.205,-0.41 0.409,0.205 -0.195,0.395 -0.409,-0.205 -0.405,-0.22 0.21,-0.385 0.404,0.215 -0.224,0.4 c -0.473,-0.244 -0.882,-0.698 -0.878,-1.292 v -0.088 l 0.269,-0.693 0.063,-0.17 0.683,-0.317 0.102,-0.049 0.151,0.005 -0.014,0.917 v -0.917 h 0.019 0.054 l 0.297,0.073 0.025,-0.049 0.419,0.185 0.41,0.205 -0.2,0.395 -0.41,-0.209 0.21,-0.405 14.93,7.616 c 0.737,0.351 1.156,0.946 1.141,1.629 v 0.166 0.014 -0.004 c 0.015,0.682 -0.404,1.282 -1.136,1.628 l -0.019,0.01 -0.005,0.005 L 0.01,0.015 -0.2,-0.395 0.21,-0.6 l 0.2,0.39 0.014,0.034 0.01,0.03 z" style="fill:#000000;fill-opacity:1;fill-rule:nonzero;stroke:none" id="path118" />
          </g>
          <g id="g120" transform="translate(320.6886,530.9612)">
            <path d="m 0,0 0.195,0.395 -0.322,0.366 0.029,0.482 16.048,32.856 0.365,0.317 0.483,-0.03 0.317,-0.36 L 17.086,33.543 1.039,0.687 0.678,0.371 0.195,0.4 0,0 -0.195,-0.4 c 0.375,-0.18 0.795,-0.195 1.16,-0.068 0.366,0.127 0.688,0.395 0.868,0.77 l 16.048,32.851 c 0.185,0.375 0.2,0.794 0.073,1.16 -0.127,0.366 -0.395,0.688 -0.771,0.868 -0.375,0.185 -0.79,0.2 -1.155,0.073 -0.366,-0.127 -0.688,-0.395 -0.873,-0.77 L -0.892,1.633 c -0.186,-0.375 -0.195,-0.794 -0.069,-1.16 0.122,-0.366 0.39,-0.688 0.766,-0.868 z" style="fill:#000000;fill-opacity:1;fill-rule:nonzero;stroke:none" id="path122" />
          </g>
          <g id="g124" transform="translate(320.6886,530.9612)">
            <path d="m 0,0 0.41,-0.2 0.195,0.395 0.136,0.278 -0.4,0.449 0.015,0.204 15.964,32.69 0.156,0.131 0.103,-0.004 0.068,-0.078 L 16.632,33.66 0.668,0.97 0.517,0.839 0.219,0.853 -0.088,0.873 -0.414,0.2 -0.605,-0.195 -0.809,-0.609 -0.395,-0.81 0.468,-1.009 1.112,-0.902 c 0.478,0.166 0.897,0.512 1.136,0.999 l 16.047,32.856 0.195,0.863 -0.102,0.643 c -0.166,0.478 -0.512,0.898 -1.005,1.137 L 16.52,35.795 15.877,35.683 C 15.404,35.522 14.984,35.176 14.74,34.684 L -1.302,1.833 -1.507,0.97 -1.395,0.322 v 0.005 c 0.161,-0.478 0.508,-0.897 1,-1.137 L 0.015,-1.009 0.41,-0.2 0,0 l -0.414,0.2 -0.191,-0.395 0.41,-0.2 0.2,0.41 -0.532,0.609 -0.004,0.005 -0.054,0.341 0.107,0.459 16.043,32.855 0.609,0.536 0.346,0.059 0.463,-0.108 0.537,-0.609 0.054,-0.346 L 17.471,33.353 1.424,0.502 0.814,-0.034 0.468,-0.093 0.005,0.015 l -0.2,-0.415 0.414,-0.2 0.191,0.4 0.063,0.122 0.175,-0.01 0.191,-0.015 0.507,0.449 0.063,0.059 16.13,33.016 0.035,0.575 0.009,0.19 -0.443,0.508 -0.127,0.141 -0.673,0.039 -0.19,0.01 L 15.647,34.44 15.579,34.381 -0.551,1.36 -0.585,0.79 -0.595,0.6 -0.351,0.322 -0.414,0.2 Z" style="fill:#000000;fill-opacity:1;fill-rule:nonzero;stroke:none" id="path126" />
          </g>
        </g>
        <g id="tower-left">
          <g id="g128" transform="translate(228.9542,636.4727)">
            <path d="M 0,0 C 0,-12.966 6.671,-24.639 17.261,-32.982 27.857,-41.33 42.403,-46.44 58.45,-46.44 v 3.403 c -15.321,0 -29.149,4.896 -39.082,12.732 C 9.43,-22.459 3.408,-11.761 3.408,0 Z" style="fill:#000000;fill-opacity:1;fill-rule:nonzero;stroke:none" id="path130" />
          </g>
          <g id="g132" transform="translate(228.9542,636.4727)">
            <path d="m 0,0 -0.449,0.093 -0.009,-0.098 c 0,-13.127 6.753,-24.932 17.432,-33.333 10.688,-8.421 25.331,-13.561 41.476,-13.561 h 0.458 v 3.862 0.459 H 58.45 c -15.233,0 -28.959,4.871 -38.799,12.634 C 9.801,-22.162 3.867,-11.6 3.867,0 V 0.458 H 0 -0.375 L -0.449,0.093 0,0 V -0.459 H 3.408 V 0 H 2.95 c 0,-11.922 6.11,-22.752 16.135,-30.666 10.021,-7.899 23.937,-12.824 39.365,-12.829 v 0.458 h -0.458 v -3.403 h 0.458 v 0.458 c -15.95,0 -30.398,5.081 -40.906,13.361 C 7.041,-24.347 0.458,-12.81 0.458,-0.005 H 0.029 l 0.42,-0.088 0.009,0.088 H 0.029 L 0.449,-0.093 0,0 v -0.459 z" style="fill:#000000;fill-opacity:1;fill-rule:nonzero;stroke:none" id="path134" />
          </g>
          <g id="g144" transform="translate(228.9542,637.6852)">
            <path d="m 0,0 v -149.409 l 3.408,-2.287 V -0.883" style="fill:#000000;fill-opacity:1;fill-rule:nonzero;stroke:none" id="path146" />
          </g>
          <g id="g148" transform="translate(228.4958,637.6852)">
            <path d="m 0,0 v -149.653 l 4.325,-2.901 V -0.883 H 3.408 v -149.955 l -2.491,1.673 0,149.165 z" style="fill:#000000;fill-opacity:1;fill-rule:nonzero;stroke:none" id="path150" />
          </g>
          <g id="g152" transform="translate(213.4281,636.9977)">
            <path d="m 0,0 v -136.336 l 3.408,-2.624 V 0" style="fill:#000000;fill-opacity:1;fill-rule:nonzero;stroke:none" id="path154" />
          </g>
          <g id="g156" transform="translate(212.9698,636.9977)">
            <path d="m 0,0 v -136.561 l 4.325,-3.33 V 0 H 3.408 v -138.028 l -2.491,1.916 0,136.112 z" style="fill:#000000;fill-opacity:1;fill-rule:nonzero;stroke:none" id="path158" />
          </g>
          <g id="g160" transform="translate(285.5791,593.9192)">
            <path d="m 0,0 0.122,-100.716 3.403,0.697 v 99.96" style="fill:#000000;fill-opacity:1;fill-rule:nonzero;stroke:none" id="path162" />
          </g>
          <g id="g164" transform="translate(285.1202,593.9189)">
            <path d="m 0,0 0.122,-101.277 3.954,0.809 0.366,0.074 V -0.059 H 3.53 L 3.525,-99.644 1.034,-100.151 0.917,0 Z" style="fill:#000000;fill-opacity:1;fill-rule:nonzero;stroke:none" id="path166" />
          </g>
          <g id="g200" transform="translate(216.5474,634.9221)">
            <path d="M 0,0 C 1.829,1.829 3.955,2.911 6.344,2.916 8.738,2.911 10.879,1.931 12.707,0.102 l 2.862,1.98 C 13.092,4.559 9.586,6.28 6.344,6.276 3.101,6.28 -0.439,4.559 -2.916,2.082 l 2.833,-2.453 z" style="fill:#000000;fill-opacity:1;fill-rule:nonzero;stroke:none" id="path202" />
          </g>
          <g id="g204" transform="translate(216.5474,634.9221)">
            <path d="m 0,0 0.322,-0.322 c 1.77,1.77 3.774,2.779 6.022,2.784 2.262,-0.005 4.281,-0.921 6.041,-2.682 l 0.268,-0.263 3.619,2.501 -0.386,0.386 C 13.336,4.949 9.752,6.724 6.344,6.729 2.935,6.724 -0.683,4.954 -3.233,2.404 L -3.579,2.058 0.195,-1.21 0.444,-0.098 0,0 0.322,-0.322 0,0 -0.444,0.097 -0.527,-0.273 -0.083,-0.371 0.215,-0.029 -2.618,2.428 -2.916,2.082 -2.594,1.765 C -0.2,4.164 3.257,5.832 6.344,5.827 9.43,5.832 12.853,4.164 15.248,1.765 l 0.321,0.317 -0.258,0.375 -2.862,-1.984 0.258,-0.371 0.322,0.322 C 11.137,2.316 8.865,3.369 6.344,3.364 3.808,3.364 1.565,2.209 -0.322,0.322 L -0.415,0.229 -0.444,0.097 Z" style="fill:#000000;fill-opacity:1;fill-rule:nonzero;stroke:none" id="path206" />
          </g>
        </g>
        <g id="tower-right">
          <g id="g136" transform="translate(308.7338,620.9072)">
            <path d="m 0,0 c 17.959,0 34.274,7.017 46.094,18.539 11.82,11.517 19.148,27.564 19.148,45.543 H 61.858 C 61.854,30.003 32.451,3.418 -1.692,3.404 v -3.677 z" style="fill:#000000;fill-opacity:1;fill-rule:nonzero;stroke:none" id="path138" />
          </g>
          <g id="g140" transform="translate(309.197,620.8842)">
            <path d="m 0,0 v -0.454 c 18.081,0 34.508,7.066 46.411,18.666 11.902,11.596 19.285,27.76 19.285,45.86 v 0.005 h -0.439 l 0.419,-0.117 0.02,0.117 h -0.439 l 0.419,-0.117 0.166,0.58 H 61.858 61.4 V 64.082 C 61.405,30.281 32.221,3.876 -1.692,3.862 h -0.956 l 0.503,-4.135 V -0.805 L 0.073,-0.449 0,0 V -0.454 0 L -0.073,0.449 -1.239,0.263 V 3.404 H -1.692 V 2.95 c 34.377,0.015 63.994,26.78 64.004,61.132 h -0.454 v -0.454 h 3.384 v 0.454 l -0.438,0.127 -0.02,-0.132 V 64.072 C 64.784,46.22 57.509,30.3 45.777,18.865 34.04,7.426 17.842,0.453 0,0.453 H -0.039 L -0.073,0.449 Z" style="fill:#000000;fill-opacity:1;fill-rule:nonzero;stroke:none" id="path142" />
          </g>
          <g id="g168" transform="translate(307.0052,623.4758)">
            <path d="m 0,0 v -128.252 l 3.408,-0.58 v 129.7" style="fill:#000000;fill-opacity:1;fill-rule:nonzero;stroke:none" id="path170" />
          </g>
          <g id="g172" transform="translate(306.5468,623.4758)">
            <path d="m 0,0 v -128.637 l 3.789,-0.648 0.536,-0.093 V 0.868 H 3.408 v -129.159 l -2.491,0.429 V 1.243 L 0,1.243 Z" style="fill:#000000;fill-opacity:1;fill-rule:nonzero;stroke:none" id="path174" />
          </g>
          <g id="g176" transform="translate(371.5153,685.1975)">
            <path d="m 0,0 0.088,-201.788 3.408,1.492 L 3.408,0" style="fill:#000000;fill-opacity:1;fill-rule:nonzero;stroke:none" id="path178" />
          </g>
          <g id="g180" transform="translate(370.5829,685.4216)">
            <path d="m 0,0 0.088,-202.695 4.325,1.901 L 4.325,0 H 3.408 L 3.496,-200.194 1.004,-201.286 0.917,0 Z" style="fill:#000000;fill-opacity:1;fill-rule:nonzero;stroke:none" id="path182" />
          </g>
          <g id="g184" transform="translate(391.5595,685.4511)">
            <path d="m 0,0 v -188.174 l 3.408,3.081 V 0" style="fill:#000000;fill-opacity:1;fill-rule:nonzero;stroke:none" id="path186" />
          </g>
          <g id="g188" transform="translate(391.1011,685.4511)">
            <path d="m 0,0 v -189.208 l 4.325,3.916 V 0 H 3.408 V -184.888 L 0.917,-187.141 0.917,0 Z" style="fill:#000000;fill-opacity:1;fill-rule:nonzero;stroke:none" id="path190" />
          </g>
          <g id="g192" transform="translate(394.7885,685.5472)">
            <path d="m 0,0 c -3.14,3.14 -7.636,5.49 -11.737,5.49 -4.101,0 -8.577,-2.35 -11.717,-5.49 l 3.121,-1.59 c 2.501,2.502 5.339,3.74 8.596,3.745 3.253,-0.005 6.115,-1.624 8.621,-4.125 l 2.453,1.312 z" style="fill:#000000;fill-opacity:1;fill-rule:nonzero;stroke:none" id="path194" />
          </g>
          <g id="g196" transform="translate(394.7885,685.5472)">
            <path d="m 0,0 0.317,0.317 c -3.213,3.208 -7.778,5.612 -12.054,5.622 -4.281,-0.01 -8.821,-2.414 -12.034,-5.622 l -0.434,-0.434 3.959,-2.024 0.23,0.234 c 2.438,2.429 5.139,3.604 8.279,3.613 3.096,-0.004 5.847,-1.54 8.304,-3.993 l 0.234,-0.234 2.746,1.468 0.058,0.029 0.712,0.707 L 0.639,0 0.317,0.317 0,0 l -0.317,0.317 -0.619,-0.61 -2.394,-1.282 0.214,-0.395 0.317,0.317 c -2.55,2.55 -5.525,4.252 -8.938,4.257 -3.374,0 -6.349,-1.307 -8.913,-3.877 l 0.317,-0.317 0.204,0.4 -3.12,1.59 -0.205,-0.4 0.322,-0.317 c 3.062,3.072 7.46,5.364 11.395,5.359 3.935,0.005 8.353,-2.287 11.42,-5.359 L 0,0 -0.317,0.317 Z" style="fill:#000000;fill-opacity:1;fill-rule:nonzero;stroke:none" id="path198" />
          </g>
        </g>
        <g id="tower-base">
          <g id="g208" transform="translate(354.149,475.8061)">
            <path d="m 0,0 c -14.038,14.029 -32.455,23.327 -51.136,23.342 -18.68,-0.015 -37.424,-9.655 -51.467,-23.683 l 4.008,-1.941 c 13.4,13.414 30.212,21.43 47.459,21.416 17.247,0.014 34.757,-8.699 48.162,-22.109 l 4.539,1.41 z" style="fill:#000000;fill-opacity:1;fill-rule:nonzero;stroke:none" id="path210" />
          </g>
          <g id="g212" transform="translate(354.149,475.8061)">
            <path d="M 0,0 0.322,0.327 C -13.785,14.423 -32.299,23.786 -51.136,23.8 -69.982,23.781 -88.818,14.077 -102.925,-0.02 l -0.458,-0.453 4.881,-2.365 0.229,0.234 c 13.321,13.326 30.002,21.279 47.088,21.279 h 0.044 0.044 c 17.076,0.005 34.474,-8.64 47.796,-21.976 L -3.106,-3.496 2.428,-1.775 0.322,0.322 0,0 l -0.322,-0.327 1.024,-1.024 -3.813,-1.185 0.137,-0.439 0.321,0.322 c -13.463,13.468 -31.051,22.245 -48.444,22.245 h -0.044 -0.044 c -17.378,0 -34.279,-8.08 -47.737,-21.552 l 0.327,-0.322 0.2,0.414 -4.008,1.936 -0.2,-0.409 0.326,-0.327 c 13.971,13.965 32.622,23.542 51.141,23.552 18.525,-0.01 36.839,-9.246 50.814,-23.211 z" style="fill:#000000;fill-opacity:1;fill-rule:nonzero;stroke:none" id="path214" />
          </g>
        </g>
        <g id="outer-circle">
          <g id="g216" transform="translate(444.3356,606.7639)">
            <path d="m 0,0 h -1.872 c 0,-38.131 -15.355,-73.347 -40.136,-99.024 -24.78,-25.673 -58.947,-41.789 -96.591,-41.789 -35.693,-0.005 -69.913,14.59 -95.182,38.029 -25.272,23.44 -41.549,55.656 -41.549,90.896 0,3.862 0.195,7.768 0.595,11.698 3.872,37.887 19.821,70.035 44.192,92.734 24.376,22.693 57.173,35.961 94.924,35.966 37.755,-0.005 71.181,-13.117 95.167,-35.703 C -16.472,70.216 -1.882,38.16 -1.872,0 H 0 1.872 c 0.01,39.121 -15.023,72.254 -39.755,95.533 -24.731,23.288 -59.113,36.727 -97.736,36.722 -38.629,0.005 -72.411,-13.619 -97.479,-36.971 -25.068,-23.342 -41.413,-56.387 -45.362,-95.094 -0.415,-4.057 -0.615,-8.09 -0.615,-12.078 0,-36.415 16.818,-69.602 42.744,-93.641 25.931,-24.049 61.01,-39.024 97.732,-39.028 C -61.117,-144.533 1.863,-78.286 1.872,0 Z" style="fill:#000000;fill-opacity:1;fill-rule:nonzero;stroke:none" id="path218" />
          </g>
          <g id="g220" transform="translate(444.3356,606.7639)">
            <path d="M 0,0 V 0.458 H -1.872 -2.331 V 0 -0.005 c 0,-38.004 -15.306,-73.103 -40.003,-98.697 -24.708,-25.595 -58.753,-41.652 -96.265,-41.652 -35.576,0 -69.689,14.545 -94.869,37.907 -25.19,23.366 -41.404,55.461 -41.404,90.554 v 0.029 l -0.458,-0.029 0.307,-0.332 0.151,0.361 -0.458,-0.029 0.307,-0.332 0.151,0.137 v 0.2 c 0,3.847 0.196,7.733 0.595,11.649 3.857,37.79 19.763,69.831 44.046,92.446 24.288,22.616 56.968,35.84 94.612,35.845 37.653,-0.005 70.957,-13.078 94.855,-35.577 C -16.876,69.967 -2.341,38.043 -2.331,0 V -0.459 H 0 1.872 2.331 V 0 0.034 c 0,39.223 -15.082,72.479 -39.901,95.835 -24.815,23.371 -59.314,36.844 -98.049,36.844 h -0.025 c -38.726,0 -72.62,-13.668 -97.766,-37.092 -25.156,-23.425 -41.549,-56.573 -45.504,-95.382 -0.419,-4.072 -0.619,-8.114 -0.619,-12.113 v -0.058 l 0.458,0.044 h -0.458 c 0,-36.561 16.886,-69.86 42.89,-93.978 26.014,-24.122 61.195,-39.145 98.044,-39.15 C -60.844,-144.986 2.316,-78.53 2.331,0 V 0.458 H 0 V 0 -0.459 H 1.872 V 0 H 1.414 c -0.01,-78.037 -62.799,-144.079 -140.013,-144.099 -36.595,0 -71.566,14.931 -97.42,38.906 -25.848,23.967 -42.597,57.032 -42.597,93.305 v 0.019 0.025 l -0.322,-0.03 h 0.322 v 0.03 l -0.322,-0.03 h 0.322 c 0,3.97 0.2,7.978 0.614,12.015 3.935,38.609 20.231,71.543 45.216,94.807 24.976,23.268 58.631,36.849 97.142,36.849 h 0.02 c 38.526,0 72.79,-13.4 97.424,-36.596 C -13.565,72.015 1.409,39.023 1.414,0.034 V 0 H 1.872 V 0.458 H 0 -1.872 V 0 h 0.458 c -0.005,38.277 -14.648,70.465 -38.721,93.143 -24.079,22.67 -57.621,35.825 -95.484,35.825 -37.859,-0.004 -70.777,-13.317 -95.236,-36.088 -24.454,-22.776 -40.457,-55.037 -44.333,-93.026 -0.405,-3.945 -0.6,-7.861 -0.6,-11.742 h 0.458 l -0.312,0.336 -0.146,-0.302 v -0.063 l 0.434,0.024 h -0.434 v -0.024 l 0.434,0.024 h -0.434 c 0,-35.381 16.345,-67.715 41.695,-91.227 25.342,-23.508 59.665,-38.151 95.494,-38.151 37.78,0 72.064,16.169 96.923,41.93 24.858,25.76 40.262,61.083 40.262,99.336 V 0 H -1.872 V -0.459 H 0 Z" style="fill:#000000;fill-opacity:1;fill-rule:nonzero;stroke:none" id="path222" />
          </g>
        </g>
      </g>
    </g>
  </g>
</svg>
